<?xml version="1.0" encoding="UTF-8"?>
<svg xmlns="http://www.w3.org/2000/svg" viewBox="0 0 1100 920" width="1100" height="920">
  <rect width="100%" height="100%" fill="#f4f3ef"/>
  <text x="16" y="24" font-size="18" font-family="sans-serif">DEVELOPMENT / graph-constrained experimental pipeline</text>
  <text x="16" y="44" font-size="12" font-family="sans-serif" fill="#666">gps 30.0619, 31.2195 · search 30.06216, 31.219267 · black dashed = ideal · gray = streets · green = shape route · orange = connector · black dot = user</text>
  <text x="20" y="70" font-size="14" font-family="sans-serif">sf-r292.5-s1.0-e282.8-n-282.8  score 0.72  excellent</text>
<polyline points="83.8,371.0 88.7,395.2" fill="none" stroke="#d4cfc6" stroke-width="1.2"/>
<polyline points="83.8,371.0 88.7,395.2" fill="none" stroke="#d4cfc6" stroke-width="1.2"/>
<polyline points="95.3,393.5 95.3,391.2 95.4,389.2 96.2,385.7 97.0,383.8" fill="none" stroke="#d4cfc6" stroke-width="1.2"/>
<polyline points="95.3,393.5 95.3,391.2 95.4,389.2 96.2,385.7 97.0,383.8" fill="none" stroke="#d4cfc6" stroke-width="1.2"/>
<polyline points="120.2,398.8 119.0,396.4 117.9,394.3 116.8,392.7 116.4,392.0 116.0,391.0 115.9,390.1 116.1,389.3 116.3,388.7 116.7,388.1 117.4,387.5 118.0,387.1 118.8,386.8 119.8,386.6 120.5,386.6 121.1,386.6 121.3,386.6 121.6,386.8 121.7,386.9" fill="none" stroke="#d4cfc6" stroke-width="1.2"/>
<polyline points="120.2,398.8 119.0,396.4 117.9,394.3 116.8,392.7 116.4,392.0 116.0,391.0 115.9,390.1 116.1,389.3 116.3,388.7 116.7,388.1 117.4,387.5 118.0,387.1 118.8,386.8 119.8,386.6 120.5,386.6 121.1,386.6 121.3,386.6 121.6,386.8 121.7,386.9" fill="none" stroke="#d4cfc6" stroke-width="1.2"/>
<polyline points="97.0,383.8 95.5,378.5 94.8,376.5 94.3,374.4 93.8,372.3 93.5,370.3" fill="none" stroke="#d4cfc6" stroke-width="1.2"/>
<polyline points="97.0,383.8 95.5,378.5 94.8,376.5 94.3,374.4 93.8,372.3 93.5,370.3" fill="none" stroke="#d4cfc6" stroke-width="1.2"/>
<polyline points="97.0,383.8 97.6,382.3 98.6,380.5 100.0,378.6 101.5,377.1" fill="none" stroke="#d4cfc6" stroke-width="1.2"/>
<polyline points="97.0,383.8 97.6,382.3 98.6,380.5 100.0,378.6 101.5,377.1" fill="none" stroke="#d4cfc6" stroke-width="1.2"/>
<polyline points="121.9,387.3 121.8,387.6 121.7,387.8 121.5,388.0 121.3,388.1 121.0,388.2 119.6,388.4 119.2,388.5 118.8,388.7 118.2,388.9 117.9,389.3 117.6,389.8 117.5,390.3 117.6,390.9 117.9,391.4 118.9,392.8 119.4,393.4 120.1,393.8 120.9,394.0 121.7,394.0 122.4,393.8 124.2,393.3" fill="none" stroke="#d4cfc6" stroke-width="1.2"/>
<polyline points="121.9,387.3 121.8,387.6 121.7,387.8 121.5,388.0 121.3,388.1 121.0,388.2 119.6,388.4 119.2,388.5 118.8,388.7 118.2,388.9 117.9,389.3 117.6,389.8 117.5,390.3 117.6,390.9 117.9,391.4 118.9,392.8 119.4,393.4 120.1,393.8 120.9,394.0 121.7,394.0 122.4,393.8 124.2,393.3" fill="none" stroke="#d4cfc6" stroke-width="1.2"/>
<polyline points="121.9,387.3 122.4,387.4 122.6,387.4 122.9,387.5 123.1,387.7 123.2,387.9 123.3,388.1 123.4,388.3 123.5,388.7 123.5,388.9 123.5,389.2 123.6,389.6 123.8,390.2 124.1,390.9 124.6,391.9 125.1,393.0 126.7,395.5" fill="none" stroke="#d4cfc6" stroke-width="1.2"/>
<polyline points="121.9,387.3 122.4,387.4 122.6,387.4 122.9,387.5 123.1,387.7 123.2,387.9 123.3,388.1 123.4,388.3 123.5,388.7 123.5,388.9 123.5,389.2 123.6,389.6 123.8,390.2 124.1,390.9 124.6,391.9 125.1,393.0 126.7,395.5" fill="none" stroke="#d4cfc6" stroke-width="1.2"/>
<polyline points="79.6,305.1 57.2,293.1" fill="none" stroke="#d4cfc6" stroke-width="1.2"/>
<polyline points="79.6,305.1 57.2,293.1" fill="none" stroke="#d4cfc6" stroke-width="1.2"/>
<polyline points="79.6,305.1 66.2,332.8" fill="none" stroke="#d4cfc6" stroke-width="1.2"/>
<polyline points="79.6,305.1 66.2,332.8" fill="none" stroke="#d4cfc6" stroke-width="1.2"/>
<polyline points="79.6,305.1 106.6,250.2" fill="none" stroke="#d4cfc6" stroke-width="1.2"/>
<polyline points="79.6,305.1 106.6,250.2" fill="none" stroke="#d4cfc6" stroke-width="1.2"/>
<polyline points="115.4,323.5 79.6,305.1" fill="none" stroke="#d4cfc6" stroke-width="1.2"/>
<polyline points="115.4,323.5 79.6,305.1" fill="none" stroke="#d4cfc6" stroke-width="1.2"/>
<polyline points="57.2,293.1 66.2,332.8" fill="none" stroke="#d4cfc6" stroke-width="1.2"/>
<polyline points="57.2,293.1 66.2,332.8" fill="none" stroke="#d4cfc6" stroke-width="1.2"/>
<polyline points="51.6,268.7 57.2,293.1" fill="none" stroke="#d4cfc6" stroke-width="1.2"/>
<polyline points="51.6,268.7 57.2,293.1" fill="none" stroke="#d4cfc6" stroke-width="1.2"/>
<polyline points="101.4,328.2 99.2,327.4 96.8,326.9 93.6,326.7 91.1,327.1 88.2,327.8 86.4,328.6 84.7,329.9 83.3,331.4 82.3,333.2 81.7,335.2 81.5,337.3" fill="none" stroke="#d4cfc6" stroke-width="1.2"/>
<polyline points="101.4,328.2 99.2,327.4 96.8,326.9 93.6,326.7 91.1,327.1 88.2,327.8 86.4,328.6 84.7,329.9 83.3,331.4 82.3,333.2 81.7,335.2 81.5,337.3" fill="none" stroke="#d4cfc6" stroke-width="1.2"/>
<polyline points="66.2,332.8 73.8,368.1" fill="none" stroke="#d4cfc6" stroke-width="1.2"/>
<polyline points="66.2,332.8 73.8,368.1" fill="none" stroke="#d4cfc6" stroke-width="1.2"/>
<polyline points="81.5,337.3 81.2,347.9" fill="none" stroke="#d4cfc6" stroke-width="1.2"/>
<polyline points="81.5,337.3 81.2,347.9" fill="none" stroke="#d4cfc6" stroke-width="1.2"/>
<polyline points="133.3,341.9 125.7,338.7 107.5,330.4 104.4,329.3 101.4,328.2" fill="none" stroke="#d4cfc6" stroke-width="1.2"/>
<polyline points="133.3,341.9 125.7,338.7 107.5,330.4 104.4,329.3 101.4,328.2" fill="none" stroke="#d4cfc6" stroke-width="1.2"/>
<polyline points="101.4,328.2 103.0,349.8" fill="none" stroke="#d4cfc6" stroke-width="1.2"/>
<polyline points="101.4,328.2 103.0,349.8" fill="none" stroke="#d4cfc6" stroke-width="1.2"/>
<polyline points="40.7,216.3 51.6,268.7" fill="none" stroke="#d4cfc6" stroke-width="1.2"/>
<polyline points="40.7,216.3 51.6,268.7" fill="none" stroke="#d4cfc6" stroke-width="1.2"/>
<polyline points="71.0,231.9 51.6,268.7" fill="none" stroke="#d4cfc6" stroke-width="1.2"/>
<polyline points="71.0,231.9 51.6,268.7" fill="none" stroke="#d4cfc6" stroke-width="1.2"/>
<polyline points="81.2,347.9 83.0,348.3 84.7,348.7 86.5,349.0 88.2,349.2 90.0,349.5 95.0,349.7" fill="none" stroke="#d4cfc6" stroke-width="1.2"/>
<polyline points="81.2,347.9 83.0,348.3 84.7,348.7 86.5,349.0 88.2,349.2 90.0,349.5 95.0,349.7" fill="none" stroke="#d4cfc6" stroke-width="1.2"/>
<polyline points="81.2,347.9 81.2,352.0 81.4,355.5 81.8,359.1 83.8,371.0" fill="none" stroke="#d4cfc6" stroke-width="1.2"/>
<polyline points="81.2,347.9 81.2,352.0 81.4,355.5 81.8,359.1 83.8,371.0" fill="none" stroke="#d4cfc6" stroke-width="1.2"/>
<polyline points="115.4,323.5 135.8,283.4" fill="none" stroke="#d4cfc6" stroke-width="1.2"/>
<polyline points="115.4,323.5 135.8,283.4" fill="none" stroke="#d4cfc6" stroke-width="1.2"/>
<polyline points="152.4,342.1 115.4,323.5" fill="none" stroke="#d4cfc6" stroke-width="1.2"/>
<polyline points="152.4,342.1 115.4,323.5" fill="none" stroke="#d4cfc6" stroke-width="1.2"/>
<polyline points="95.0,349.7 100.2,349.8 103.0,349.8" fill="none" stroke="#d4cfc6" stroke-width="1.2"/>
<polyline points="95.0,349.7 100.2,349.8 103.0,349.8" fill="none" stroke="#d4cfc6" stroke-width="1.2"/>
<polyline points="95.8,357.1 95.3,353.7 95.0,349.7" fill="none" stroke="#d4cfc6" stroke-width="1.2"/>
<polyline points="95.8,357.1 95.3,353.7 95.0,349.7" fill="none" stroke="#d4cfc6" stroke-width="1.2"/>
<polyline points="103.0,349.8 116.9,349.8 119.4,349.8 121.7,349.9 123.9,350.2" fill="none" stroke="#d4cfc6" stroke-width="1.2"/>
<polyline points="103.0,349.8 116.9,349.8 119.4,349.8 121.7,349.9 123.9,350.2" fill="none" stroke="#d4cfc6" stroke-width="1.2"/>
<polyline points="103.0,349.8 103.3,352.6 103.9,355.3 104.7,357.9 105.7,360.5 106.6,362.2" fill="none" stroke="#d4cfc6" stroke-width="1.2"/>
<polyline points="103.0,349.8 103.3,352.6 103.9,355.3 104.7,357.9 105.7,360.5 106.6,362.2" fill="none" stroke="#d4cfc6" stroke-width="1.2"/>
<polyline points="91.5,368.7 92.6,367.3 93.1,366.4 93.5,365.4 93.8,364.4 93.9,363.4 94.0,362.0 94.2,360.6 94.4,359.6 94.8,358.7 95.8,357.1" fill="none" stroke="#d4cfc6" stroke-width="1.2"/>
<polyline points="91.5,368.7 92.6,367.3 93.1,366.4 93.5,365.4 93.8,364.4 93.9,363.4 94.0,362.0 94.2,360.6 94.4,359.6 94.8,358.7 95.8,357.1" fill="none" stroke="#d4cfc6" stroke-width="1.2"/>
<polyline points="96.9,359.2 95.8,357.1" fill="none" stroke="#d4cfc6" stroke-width="1.2"/>
<polyline points="96.9,359.2 95.8,357.1" fill="none" stroke="#d4cfc6" stroke-width="1.2"/>
<polyline points="100.2,369.4 99.7,367.1 99.2,365.2 98.4,363.1 97.3,360.2 96.9,359.2" fill="none" stroke="#d4cfc6" stroke-width="1.2"/>
<polyline points="100.2,369.4 99.7,367.1 99.2,365.2 98.4,363.1 97.3,360.2 96.9,359.2" fill="none" stroke="#d4cfc6" stroke-width="1.2"/>
<polyline points="106.6,362.2 104.5,361.8 102.5,361.4 100.6,360.8 98.7,360.0 96.9,359.2" fill="none" stroke="#d4cfc6" stroke-width="1.2"/>
<polyline points="106.6,362.2 104.5,361.8 102.5,361.4 100.6,360.8 98.7,360.0 96.9,359.2" fill="none" stroke="#d4cfc6" stroke-width="1.2"/>
<polyline points="73.8,368.1 74.7,372.5" fill="none" stroke="#d4cfc6" stroke-width="1.2"/>
<polyline points="73.8,368.1 74.7,372.5" fill="none" stroke="#d4cfc6" stroke-width="1.2"/>
<polyline points="73.8,368.1 69.6,368.9" fill="none" stroke="#d4cfc6" stroke-width="1.2"/>
<polyline points="73.8,368.1 69.6,368.9" fill="none" stroke="#d4cfc6" stroke-width="1.2"/>
<polyline points="71.0,231.9 106.6,250.2" fill="none" stroke="#d4cfc6" stroke-width="1.2"/>
<polyline points="71.0,231.9 106.6,250.2" fill="none" stroke="#d4cfc6" stroke-width="1.2"/>
<polyline points="106.6,250.2 135.7,193.9" fill="none" stroke="#d4cfc6" stroke-width="1.2"/>
<polyline points="106.6,250.2 135.7,193.9" fill="none" stroke="#d4cfc6" stroke-width="1.2"/>
<polyline points="90.5,368.0 89.5,367.6 88.3,367.6 87.2,368.0 86.3,368.7 85.7,369.6 85.3,370.7" fill="none" stroke="#d4cfc6" stroke-width="1.2"/>
<polyline points="90.5,368.0 89.5,367.6 88.3,367.6 87.2,368.0 86.3,368.7 85.7,369.6 85.3,370.7" fill="none" stroke="#d4cfc6" stroke-width="1.2"/>
<polyline points="106.6,362.2 107.5,363.9 108.6,365.5" fill="none" stroke="#d4cfc6" stroke-width="1.2"/>
<polyline points="106.6,362.2 107.5,363.9 108.6,365.5" fill="none" stroke="#d4cfc6" stroke-width="1.2"/>
<polyline points="92.4,370.4 92.0,369.5 91.5,368.7" fill="none" stroke="#d4cfc6" stroke-width="1.2"/>
<polyline points="92.4,370.4 92.0,369.5 91.5,368.7" fill="none" stroke="#d4cfc6" stroke-width="1.2"/>
<polyline points="85.3,370.7 85.4,371.9 85.9,373.1 86.7,374.0 87.8,374.6" fill="none" stroke="#d4cfc6" stroke-width="1.2"/>
<polyline points="85.3,370.7 85.4,371.9 85.9,373.1 86.7,374.0 87.8,374.6" fill="none" stroke="#d4cfc6" stroke-width="1.2"/>
<polyline points="79.8,371.6 82.3,371.3" fill="none" stroke="#d4cfc6" stroke-width="1.2"/>
<polyline points="79.8,371.6 82.3,371.3" fill="none" stroke="#d4cfc6" stroke-width="1.2"/>
<polyline points="123.9,350.2 124.4,349.1 125.7,347.3 127.1,345.6 128.5,344.4 130.8,343.4 133.3,341.9" fill="none" stroke="#d4cfc6" stroke-width="1.2"/>
<polyline points="123.9,350.2 124.4,349.1 125.7,347.3 127.1,345.6 128.5,344.4 130.8,343.4 133.3,341.9" fill="none" stroke="#d4cfc6" stroke-width="1.2"/>
<polyline points="123.9,350.2 125.5,350.8 126.6,351.6 127.8,353.0 128.9,354.4 129.5,355.3" fill="none" stroke="#d4cfc6" stroke-width="1.2"/>
<polyline points="123.9,350.2 125.5,350.8 126.6,351.6 127.8,353.0 128.9,354.4 129.5,355.3" fill="none" stroke="#d4cfc6" stroke-width="1.2"/>
<polyline points="122.9,353.6 123.9,350.2" fill="none" stroke="#d4cfc6" stroke-width="1.2"/>
<polyline points="122.9,353.6 123.9,350.2" fill="none" stroke="#d4cfc6" stroke-width="1.2"/>
<polyline points="87.8,374.6 89.0,374.7 90.2,374.5 91.3,373.8 92.0,372.8 92.4,371.7 92.4,370.4" fill="none" stroke="#d4cfc6" stroke-width="1.2"/>
<polyline points="87.8,374.6 89.0,374.7 90.2,374.5 91.3,373.8 92.0,372.8 92.4,371.7 92.4,370.4" fill="none" stroke="#d4cfc6" stroke-width="1.2"/>
<polyline points="93.5,370.3 100.2,369.4" fill="none" stroke="#d4cfc6" stroke-width="1.2"/>
<polyline points="93.5,370.3 100.2,369.4" fill="none" stroke="#d4cfc6" stroke-width="1.2"/>
<polyline points="119.6,363.4 120.4,361.9 121.1,360.2 121.7,358.6 122.2,357.0 122.6,355.3 122.9,353.6" fill="none" stroke="#d4cfc6" stroke-width="1.2"/>
<polyline points="119.6,363.4 120.4,361.9 121.1,360.2 121.7,358.6 122.2,357.0 122.6,355.3 122.9,353.6" fill="none" stroke="#d4cfc6" stroke-width="1.2"/>
<polyline points="113.5,363.4 112.1,363.3 110.7,363.6 109.5,364.4 108.6,365.5" fill="none" stroke="#d4cfc6" stroke-width="1.2"/>
<polyline points="113.5,363.4 112.1,363.3 110.7,363.6 109.5,364.4 108.6,365.5" fill="none" stroke="#d4cfc6" stroke-width="1.2"/>
<polyline points="101.5,377.1 100.2,369.4" fill="none" stroke="#d4cfc6" stroke-width="1.2"/>
<polyline points="101.5,377.1 100.2,369.4" fill="none" stroke="#d4cfc6" stroke-width="1.2"/>
<polyline points="100.2,369.4 108.3,368.4" fill="none" stroke="#d4cfc6" stroke-width="1.2"/>
<polyline points="100.2,369.4 108.3,368.4" fill="none" stroke="#d4cfc6" stroke-width="1.2"/>
<polyline points="108.6,365.5 108.2,367.0 108.3,368.4" fill="none" stroke="#d4cfc6" stroke-width="1.2"/>
<polyline points="108.6,365.5 108.2,367.0 108.3,368.4" fill="none" stroke="#d4cfc6" stroke-width="1.2"/>
<polyline points="162.8,356.7 159.8,354.6 157.2,353.0 154.0,351.2 150.9,349.7 133.3,341.9" fill="none" stroke="#d4cfc6" stroke-width="1.2"/>
<polyline points="162.8,356.7 159.8,354.6 157.2,353.0 154.0,351.2 150.9,349.7 133.3,341.9" fill="none" stroke="#d4cfc6" stroke-width="1.2"/>
<polyline points="116.4,366.4 115.9,365.1 114.9,364.1 113.5,363.4" fill="none" stroke="#d4cfc6" stroke-width="1.2"/>
<polyline points="116.4,366.4 115.9,365.1 114.9,364.1 113.5,363.4" fill="none" stroke="#d4cfc6" stroke-width="1.2"/>
<polyline points="108.3,368.4 108.8,369.7 109.7,370.7 111.0,371.4" fill="none" stroke="#d4cfc6" stroke-width="1.2"/>
<polyline points="108.3,368.4 108.8,369.7 109.7,370.7 111.0,371.4" fill="none" stroke="#d4cfc6" stroke-width="1.2"/>
<polyline points="100.2,175.5 71.0,231.9" fill="none" stroke="#d4cfc6" stroke-width="1.2"/>
<polyline points="100.2,175.5 71.0,231.9" fill="none" stroke="#d4cfc6" stroke-width="1.2"/>
<polyline points="40.7,216.3 71.0,231.9" fill="none" stroke="#d4cfc6" stroke-width="1.2"/>
<polyline points="40.7,216.3 71.0,231.9" fill="none" stroke="#d4cfc6" stroke-width="1.2"/>
<polyline points="116.4,366.4 117.9,365.2 118.8,364.4 119.6,363.4" fill="none" stroke="#d4cfc6" stroke-width="1.2"/>
<polyline points="116.4,366.4 117.9,365.2 118.8,364.4 119.6,363.4" fill="none" stroke="#d4cfc6" stroke-width="1.2"/>
<polyline points="115.7,370.0 116.3,368.9 116.6,367.6 116.4,366.4" fill="none" stroke="#d4cfc6" stroke-width="1.2"/>
<polyline points="115.7,370.0 116.3,368.9 116.6,367.6 116.4,366.4" fill="none" stroke="#d4cfc6" stroke-width="1.2"/>
<polyline points="129.5,355.3 131.3,357.9 132.8,359.4 134.8,360.8 136.8,361.5" fill="none" stroke="#d4cfc6" stroke-width="1.2"/>
<polyline points="129.5,355.3 131.3,357.9 132.8,359.4 134.8,360.8 136.8,361.5" fill="none" stroke="#d4cfc6" stroke-width="1.2"/>
<polyline points="123.4,370.7 124.2,368.7 124.9,367.0 125.1,365.9 125.5,364.7 125.8,364.1 126.3,363.5 126.7,363.0 127.3,362.5 127.8,362.0 128.2,361.6 128.8,360.5 129.1,359.9 129.3,359.3 129.4,358.7 129.5,358.1 129.5,355.3" fill="none" stroke="#d4cfc6" stroke-width="1.2"/>
<polyline points="123.4,370.7 124.2,368.7 124.9,367.0 125.1,365.9 125.5,364.7 125.8,364.1 126.3,363.5 126.7,363.0 127.3,362.5 127.8,362.0 128.2,361.6 128.8,360.5 129.1,359.9 129.3,359.3 129.4,358.7 129.5,358.1 129.5,355.3" fill="none" stroke="#d4cfc6" stroke-width="1.2"/>
<polyline points="101.5,377.1 103.2,375.8 105.1,374.8 106.7,374.1 107.9,373.4 109.2,372.7 110.3,371.9 111.0,371.4" fill="none" stroke="#d4cfc6" stroke-width="1.2"/>
<polyline points="101.5,377.1 103.2,375.8 105.1,374.8 106.7,374.1 107.9,373.4 109.2,372.7 110.3,371.9 111.0,371.4" fill="none" stroke="#d4cfc6" stroke-width="1.2"/>
<polyline points="112.0,371.7 113.0,371.6 114.1,371.3 115.0,370.7 115.7,370.0" fill="none" stroke="#d4cfc6" stroke-width="1.2"/>
<polyline points="112.0,371.7 113.0,371.6 114.1,371.3 115.0,370.7 115.7,370.0" fill="none" stroke="#d4cfc6" stroke-width="1.2"/>
<polyline points="115.7,370.0 118.2,370.4" fill="none" stroke="#d4cfc6" stroke-width="1.2"/>
<polyline points="115.7,370.0 118.2,370.4" fill="none" stroke="#d4cfc6" stroke-width="1.2"/>
<polyline points="100.2,175.5 94.3,172.4 63.1,156.2" fill="none" stroke="#d4cfc6" stroke-width="1.2"/>
<polyline points="100.2,175.5 94.3,172.4 63.1,156.2" fill="none" stroke="#d4cfc6" stroke-width="1.2"/>
<polyline points="125.5,123.7 100.2,175.5" fill="none" stroke="#d4cfc6" stroke-width="1.2"/>
<polyline points="125.5,123.7 100.2,175.5" fill="none" stroke="#d4cfc6" stroke-width="1.2"/>
<polyline points="135.7,193.9 100.2,175.5" fill="none" stroke="#d4cfc6" stroke-width="1.2"/>
<polyline points="135.7,193.9 100.2,175.5" fill="none" stroke="#d4cfc6" stroke-width="1.2"/>
<polyline points="38.3,205.6 40.7,216.3" fill="none" stroke="#d4cfc6" stroke-width="1.2"/>
<polyline points="38.3,205.6 40.7,216.3" fill="none" stroke="#d4cfc6" stroke-width="1.2"/>
<polyline points="125.5,123.7 161.8,142.7" fill="none" stroke="#d4cfc6" stroke-width="1.2"/>
<polyline points="125.5,123.7 161.8,142.7" fill="none" stroke="#d4cfc6" stroke-width="1.2"/>
<polyline points="199.2,151.4 166.4,134.7 129.1,116.0" fill="none" stroke="#d4cfc6" stroke-width="1.2"/>
<polyline points="199.2,151.4 166.4,134.7 129.1,116.0" fill="none" stroke="#d4cfc6" stroke-width="1.2"/>
<polyline points="135.7,193.9 161.8,142.7" fill="none" stroke="#d4cfc6" stroke-width="1.2"/>
<polyline points="135.7,193.9 161.8,142.7" fill="none" stroke="#d4cfc6" stroke-width="1.2"/>
<polyline points="170.8,212.2 135.7,193.9" fill="none" stroke="#d4cfc6" stroke-width="1.2"/>
<polyline points="170.8,212.2 135.7,193.9" fill="none" stroke="#d4cfc6" stroke-width="1.2"/>
<polyline points="208.5,401.7 207.6,399.5 207.4,397.1 207.9,394.8 208.7,392.5 220.8,369.8 246.7,317.7 248.6,313.8 249.5,311.4" fill="none" stroke="#d4cfc6" stroke-width="1.2"/>
<polyline points="208.5,401.7 207.6,399.5 207.4,397.1 207.9,394.8 208.7,392.5 220.8,369.8 246.7,317.7 248.6,313.8 249.5,311.4" fill="none" stroke="#d4cfc6" stroke-width="1.2"/>
<polyline points="167.9,401.6 189.0,359.5" fill="none" stroke="#d4cfc6" stroke-width="1.2"/>
<polyline points="167.9,401.6 189.0,359.5" fill="none" stroke="#d4cfc6" stroke-width="1.2"/>
<polyline points="189.0,359.5 215.5,306.0" fill="none" stroke="#d4cfc6" stroke-width="1.2"/>
<polyline points="189.0,359.5 215.5,306.0" fill="none" stroke="#d4cfc6" stroke-width="1.2"/>
<polyline points="251.7,298.0 226.1,284.0" fill="none" stroke="#d4cfc6" stroke-width="1.2"/>
<polyline points="251.7,298.0 226.1,284.0" fill="none" stroke="#d4cfc6" stroke-width="1.2"/>
<polyline points="249.5,311.4 250.7,312.1 251.6,313.2 252.2,314.4 252.4,315.9 252.5,317.5 253.2,365.7" fill="none" stroke="#d4cfc6" stroke-width="1.2"/>
<polyline points="249.5,311.4 250.7,312.1 251.6,313.2 252.2,314.4 252.4,315.9 252.5,317.5 253.2,365.7" fill="none" stroke="#d4cfc6" stroke-width="1.2"/>
<polyline points="249.5,311.4 250.3,309.0 250.7,306.5 250.9,304.0 250.6,301.9 250.8,299.9 251.7,298.0" fill="none" stroke="#d4cfc6" stroke-width="1.2"/>
<polyline points="249.5,311.4 250.3,309.0 250.7,306.5 250.9,304.0 250.6,301.9 250.8,299.9 251.7,298.0" fill="none" stroke="#d4cfc6" stroke-width="1.2"/>
<polyline points="251.7,298.0 253.0,296.7 254.7,295.9 256.2,295.4 257.4,294.5 258.3,293.2 259.0,291.7 284.5,239.0" fill="none" stroke="#d4cfc6" stroke-width="1.2"/>
<polyline points="251.7,298.0 253.0,296.7 254.7,295.9 256.2,295.4 257.4,294.5 258.3,293.2 259.0,291.7 284.5,239.0" fill="none" stroke="#d4cfc6" stroke-width="1.2"/>
<polyline points="178.6,287.1 152.4,342.1" fill="none" stroke="#d4cfc6" stroke-width="1.2"/>
<polyline points="178.6,287.1 152.4,342.1" fill="none" stroke="#d4cfc6" stroke-width="1.2"/>
<polyline points="291.0,286.0 280.9,308.6 278.5,316.6 276.8,324.8 276.0,333.0 275.9,339.0" fill="none" stroke="#d4cfc6" stroke-width="1.2"/>
<polyline points="291.0,286.0 280.9,308.6 278.5,316.6 276.8,324.8 276.0,333.0 275.9,339.0" fill="none" stroke="#d4cfc6" stroke-width="1.2"/>
<polyline points="243.9,248.5 260.8,214.1" fill="none" stroke="#d4cfc6" stroke-width="1.2"/>
<polyline points="243.9,248.5 260.8,214.1" fill="none" stroke="#d4cfc6" stroke-width="1.2"/>
<polyline points="189.0,359.5 152.4,342.1" fill="none" stroke="#d4cfc6" stroke-width="1.2"/>
<polyline points="189.0,359.5 152.4,342.1" fill="none" stroke="#d4cfc6" stroke-width="1.2"/>
<polyline points="275.9,339.0 275.8,343.0" fill="none" stroke="#d4cfc6" stroke-width="1.2"/>
<polyline points="275.9,339.0 275.8,343.0" fill="none" stroke="#d4cfc6" stroke-width="1.2"/>
<polyline points="291.0,339.5 275.9,339.0" fill="none" stroke="#d4cfc6" stroke-width="1.2"/>
<polyline points="291.0,339.5 275.9,339.0" fill="none" stroke="#d4cfc6" stroke-width="1.2"/>
<polyline points="275.8,343.0 275.1,365.9" fill="none" stroke="#d4cfc6" stroke-width="1.2"/>
<polyline points="275.8,343.0 275.1,365.9" fill="none" stroke="#d4cfc6" stroke-width="1.2"/>
<polyline points="291.0,286.0 319.1,299.4 320.2,300.8 320.7,302.1 321.0,303.6 321.0,305.0 320.9,305.7" fill="none" stroke="#d4cfc6" stroke-width="1.2"/>
<polyline points="291.0,286.0 319.1,299.4 320.2,300.8 320.7,302.1 321.0,303.6 321.0,305.0 320.9,305.7" fill="none" stroke="#d4cfc6" stroke-width="1.2"/>
<polyline points="303.3,260.8 291.0,286.0" fill="none" stroke="#d4cfc6" stroke-width="1.2"/>
<polyline points="303.3,260.8 291.0,286.0" fill="none" stroke="#d4cfc6" stroke-width="1.2"/>
<polyline points="231.4,177.5 206.5,230.0" fill="none" stroke="#d4cfc6" stroke-width="1.2"/>
<polyline points="231.4,177.5 206.5,230.0" fill="none" stroke="#d4cfc6" stroke-width="1.2"/>
<polyline points="164.3,390.9 168.1,384.2 169.1,382.1 169.8,379.8 170.3,377.9 170.4,376.3 170.3,372.7 169.9,369.2 169.2,365.6 168.2,363.5 167.3,361.5 166.2,359.9 165.0,358.7 162.8,356.7" fill="none" stroke="#d4cfc6" stroke-width="1.2"/>
<polyline points="164.3,390.9 168.1,384.2 169.1,382.1 169.8,379.8 170.3,377.9 170.4,376.3 170.3,372.7 169.9,369.2 169.2,365.6 168.2,363.5 167.3,361.5 166.2,359.9 165.0,358.7 162.8,356.7" fill="none" stroke="#d4cfc6" stroke-width="1.2"/>
<polyline points="154.8,362.9 162.8,356.7" fill="none" stroke="#d4cfc6" stroke-width="1.2"/>
<polyline points="154.8,362.9 162.8,356.7" fill="none" stroke="#d4cfc6" stroke-width="1.2"/>
<polyline points="253.5,178.5 199.2,151.4" fill="none" stroke="#d4cfc6" stroke-width="1.2"/>
<polyline points="253.5,178.5 199.2,151.4" fill="none" stroke="#d4cfc6" stroke-width="1.2"/>
<polyline points="232.3,150.3 230.8,152.8 228.5,154.7 225.8,155.8 222.8,155.7 220.1,154.6 202.2,145.6" fill="none" stroke="#d4cfc6" stroke-width="1.2"/>
<polyline points="232.3,150.3 230.8,152.8 228.5,154.7 225.8,155.8 222.8,155.7 220.1,154.6 202.2,145.6" fill="none" stroke="#d4cfc6" stroke-width="1.2"/>
<polyline points="196.6,160.1 231.4,177.5" fill="none" stroke="#d4cfc6" stroke-width="1.2"/>
<polyline points="196.6,160.1 231.4,177.5" fill="none" stroke="#d4cfc6" stroke-width="1.2"/>
<polyline points="235.5,141.6 235.9,142.7 235.6,143.7 232.3,150.3" fill="none" stroke="#d4cfc6" stroke-width="1.2"/>
<polyline points="235.5,141.6 235.9,142.7 235.6,143.7 232.3,150.3" fill="none" stroke="#d4cfc6" stroke-width="1.2"/>
<polyline points="232.3,150.3 244.1,155.9" fill="none" stroke="#d4cfc6" stroke-width="1.2"/>
<polyline points="232.3,150.3 244.1,155.9" fill="none" stroke="#d4cfc6" stroke-width="1.2"/>
<polyline points="200.2,149.5 202.2,145.6" fill="none" stroke="#d4cfc6" stroke-width="1.2"/>
<polyline points="200.2,149.5 202.2,145.6" fill="none" stroke="#d4cfc6" stroke-width="1.2"/>
<polyline points="199.2,151.4 200.2,149.5" fill="none" stroke="#d4cfc6" stroke-width="1.2"/>
<polyline points="199.2,151.4 200.2,149.5" fill="none" stroke="#d4cfc6" stroke-width="1.2"/>
<polyline points="202.2,145.6 199.4,144.2" fill="none" stroke="#d4cfc6" stroke-width="1.2"/>
<polyline points="202.2,145.6 199.4,144.2" fill="none" stroke="#d4cfc6" stroke-width="1.2"/>
<polyline points="207.8,127.8 234.6,141.0 235.5,141.6" fill="none" stroke="#d4cfc6" stroke-width="1.2"/>
<polyline points="207.8,127.8 234.6,141.0 235.5,141.6" fill="none" stroke="#d4cfc6" stroke-width="1.2"/>
<polyline points="231.4,177.5 269.1,195.6" fill="none" stroke="#d4cfc6" stroke-width="1.2"/>
<polyline points="231.4,177.5 269.1,195.6" fill="none" stroke="#d4cfc6" stroke-width="1.2"/>
<polyline points="190.3,172.9 196.6,160.1" fill="none" stroke="#d4cfc6" stroke-width="1.2"/>
<polyline points="190.3,172.9 196.6,160.1" fill="none" stroke="#d4cfc6" stroke-width="1.2"/>
<polyline points="161.8,142.7 196.6,160.1" fill="none" stroke="#d4cfc6" stroke-width="1.2"/>
<polyline points="161.8,142.7 196.6,160.1" fill="none" stroke="#d4cfc6" stroke-width="1.2"/>
<polyline points="199.4,144.2 207.8,127.8" fill="none" stroke="#d4cfc6" stroke-width="1.2"/>
<polyline points="199.4,144.2 207.8,127.8" fill="none" stroke="#d4cfc6" stroke-width="1.2"/>
<polyline points="199.4,144.2 198.5,143.5 198.0,142.5 198.0,141.4 204.8,128.0 205.7,127.5 206.8,127.4 207.8,127.8" fill="none" stroke="#d4cfc6" stroke-width="1.2"/>
<polyline points="199.4,144.2 198.5,143.5 198.0,142.5 198.0,141.4 204.8,128.0 205.7,127.5 206.8,127.4 207.8,127.8" fill="none" stroke="#d4cfc6" stroke-width="1.2"/>
<polyline points="186.4,171.3 190.3,172.9" fill="none" stroke="#d4cfc6" stroke-width="1.2"/>
<polyline points="186.4,171.3 190.3,172.9" fill="none" stroke="#d4cfc6" stroke-width="1.2"/>
<polyline points="184.5,184.6 190.3,172.9" fill="none" stroke="#d4cfc6" stroke-width="1.2"/>
<polyline points="184.5,184.6 190.3,172.9" fill="none" stroke="#d4cfc6" stroke-width="1.2"/>
<polyline points="169.8,174.6 173.3,167.3 174.4,166.6 175.6,166.3 176.9,166.6 186.4,171.3" fill="none" stroke="#d4cfc6" stroke-width="1.2"/>
<polyline points="169.8,174.6 173.3,167.3 174.4,166.6 175.6,166.3 176.9,166.6 186.4,171.3" fill="none" stroke="#d4cfc6" stroke-width="1.2"/>
<polyline points="273.4,144.0 253.5,178.5" fill="none" stroke="#d4cfc6" stroke-width="1.2"/>
<polyline points="273.4,144.0 253.5,178.5" fill="none" stroke="#d4cfc6" stroke-width="1.2"/>
<polyline points="272.8,188.9 253.5,178.5" fill="none" stroke="#d4cfc6" stroke-width="1.2"/>
<polyline points="272.8,188.9 253.5,178.5" fill="none" stroke="#d4cfc6" stroke-width="1.2"/>
<polyline points="200.5,192.6 188.8,186.7" fill="none" stroke="#d4cfc6" stroke-width="1.2"/>
<polyline points="200.5,192.6 188.8,186.7" fill="none" stroke="#d4cfc6" stroke-width="1.2"/>
<polyline points="188.8,186.7 184.5,184.6" fill="none" stroke="#d4cfc6" stroke-width="1.2"/>
<polyline points="188.8,186.7 184.5,184.6" fill="none" stroke="#d4cfc6" stroke-width="1.2"/>
<polyline points="170.8,212.2 184.5,184.6" fill="none" stroke="#d4cfc6" stroke-width="1.2"/>
<polyline points="170.8,212.2 184.5,184.6" fill="none" stroke="#d4cfc6" stroke-width="1.2"/>
<polyline points="272.8,188.9 283.6,169.2" fill="none" stroke="#d4cfc6" stroke-width="1.2"/>
<polyline points="272.8,188.9 283.6,169.2" fill="none" stroke="#d4cfc6" stroke-width="1.2"/>
<polyline points="288.2,197.3 272.8,188.9" fill="none" stroke="#d4cfc6" stroke-width="1.2"/>
<polyline points="288.2,197.3 272.8,188.9" fill="none" stroke="#d4cfc6" stroke-width="1.2"/>
<polyline points="269.1,195.6 272.8,188.9" fill="none" stroke="#d4cfc6" stroke-width="1.2"/>
<polyline points="269.1,195.6 272.8,188.9" fill="none" stroke="#d4cfc6" stroke-width="1.2"/>
<polyline points="269.1,195.6 296.9,211.8" fill="none" stroke="#d4cfc6" stroke-width="1.2"/>
<polyline points="269.1,195.6 296.9,211.8" fill="none" stroke="#d4cfc6" stroke-width="1.2"/>
<polyline points="260.8,214.1 269.1,195.6" fill="none" stroke="#d4cfc6" stroke-width="1.2"/>
<polyline points="260.8,214.1 269.1,195.6" fill="none" stroke="#d4cfc6" stroke-width="1.2"/>
<polyline points="283.6,169.2 298.2,177.0" fill="none" stroke="#d4cfc6" stroke-width="1.2"/>
<polyline points="283.6,169.2 298.2,177.0" fill="none" stroke="#d4cfc6" stroke-width="1.2"/>
<polyline points="283.6,169.2 291.0,153.7" fill="none" stroke="#d4cfc6" stroke-width="1.2"/>
<polyline points="283.6,169.2 291.0,153.7" fill="none" stroke="#d4cfc6" stroke-width="1.2"/>
<polyline points="289.3,228.0 260.8,214.1" fill="none" stroke="#d4cfc6" stroke-width="1.2"/>
<polyline points="289.3,228.0 260.8,214.1" fill="none" stroke="#d4cfc6" stroke-width="1.2"/>
<polyline points="303.3,260.8 332.6,276.0" fill="none" stroke="#d4cfc6" stroke-width="1.2"/>
<polyline points="303.3,260.8 332.6,276.0" fill="none" stroke="#d4cfc6" stroke-width="1.2"/>
<polyline points="311.2,246.0 342.7,262.2" fill="none" stroke="#d4cfc6" stroke-width="1.2"/>
<polyline points="311.2,246.0 342.7,262.2" fill="none" stroke="#d4cfc6" stroke-width="1.2"/>
<polyline points="308.3,251.5 303.3,260.8" fill="none" stroke="#d4cfc6" stroke-width="1.2"/>
<polyline points="308.3,251.5 303.3,260.8" fill="none" stroke="#d4cfc6" stroke-width="1.2"/>
<polyline points="301.0,204.7 311.6,184.1" fill="none" stroke="#d4cfc6" stroke-width="1.2"/>
<polyline points="301.0,204.7 311.6,184.1" fill="none" stroke="#d4cfc6" stroke-width="1.2"/>
<polyline points="298.2,177.0 288.2,197.3" fill="none" stroke="#d4cfc6" stroke-width="1.2"/>
<polyline points="298.2,177.0 288.2,197.3" fill="none" stroke="#d4cfc6" stroke-width="1.2"/>
<polyline points="312.8,211.6 301.0,204.7" fill="none" stroke="#d4cfc6" stroke-width="1.2"/>
<polyline points="312.8,211.6 301.0,204.7" fill="none" stroke="#d4cfc6" stroke-width="1.2"/>
<polyline points="276.2,214.5 256.3,185.0 225.7,164.4 188.2,155.3 148.1,158.8 110.5,174.4 79.7,200.3 59.6,233.3 52.5,269.4 59.3,304.4 79.2,333.9 109.8,354.5 147.4,363.6 187.4,360.1 225.1,344.5 255.8,318.7 276.0,285.7 283.0,249.5 276.2,214.5" fill="none" stroke="#111" stroke-width="3" stroke-dasharray="9 6"/>
<polyline points="157.0,98.3 269.1,195.6" fill="none" stroke="#d9782c" stroke-width="2.5" stroke-dasharray="5 4"/>
<polyline points="269.1,195.6 231.4,177.5 196.6,160.1 161.8,142.7 135.7,193.9 100.2,175.5 71.0,231.9 51.6,268.7 57.2,293.1 79.6,305.1 115.4,323.5 152.4,342.1 189.0,359.5" fill="none" stroke="#2a7" stroke-width="5" stroke-linecap="round"/>
<circle cx="157.0" cy="98.3" r="5" fill="#111"/>
<circle cx="269.1" cy="195.6" r="5" fill="#c45"/>
<circle cx="189.0" cy="359.5" r="5" fill="#1a6bb5"/>
<text x="20" y="490" font-size="14" font-family="sans-serif">sf-r337.5-s0.6-e0-n800  score 0.71  acceptable</text>
<polyline points="76.1,664.0 92.2,639.4" fill="none" stroke="#d4cfc6" stroke-width="1.2"/>
<polyline points="76.1,664.0 92.2,639.4" fill="none" stroke="#d4cfc6" stroke-width="1.2"/>
<polyline points="80.5,688.7 76.1,664.0" fill="none" stroke="#d4cfc6" stroke-width="1.2"/>
<polyline points="80.5,688.7 76.1,664.0" fill="none" stroke="#d4cfc6" stroke-width="1.2"/>
<polyline points="49.0,704.5 76.1,664.0" fill="none" stroke="#d4cfc6" stroke-width="1.2"/>
<polyline points="49.0,704.5 76.1,664.0" fill="none" stroke="#d4cfc6" stroke-width="1.2"/>
<polyline points="73.3,625.5 50.8,657.4" fill="none" stroke="#d4cfc6" stroke-width="1.2"/>
<polyline points="73.3,625.5 50.8,657.4" fill="none" stroke="#d4cfc6" stroke-width="1.2"/>
<polyline points="73.3,625.5 92.2,639.4" fill="none" stroke="#d4cfc6" stroke-width="1.2"/>
<polyline points="73.3,625.5 92.2,639.4" fill="none" stroke="#d4cfc6" stroke-width="1.2"/>
<polyline points="92.2,639.4 111.7,653.8" fill="none" stroke="#d4cfc6" stroke-width="1.2"/>
<polyline points="92.2,639.4 111.7,653.8" fill="none" stroke="#d4cfc6" stroke-width="1.2"/>
<polyline points="92.2,639.4 105.3,620.4" fill="none" stroke="#d4cfc6" stroke-width="1.2"/>
<polyline points="92.2,639.4 105.3,620.4" fill="none" stroke="#d4cfc6" stroke-width="1.2"/>
<polyline points="91.9,598.0 73.3,625.5" fill="none" stroke="#d4cfc6" stroke-width="1.2"/>
<polyline points="91.9,598.0 73.3,625.5" fill="none" stroke="#d4cfc6" stroke-width="1.2"/>
<polyline points="54.1,611.7 73.3,625.5" fill="none" stroke="#d4cfc6" stroke-width="1.2"/>
<polyline points="54.1,611.7 73.3,625.5" fill="none" stroke="#d4cfc6" stroke-width="1.2"/>
<polyline points="111.7,653.8 108.5,637.1" fill="none" stroke="#d4cfc6" stroke-width="1.2"/>
<polyline points="111.7,653.8 108.5,637.1" fill="none" stroke="#d4cfc6" stroke-width="1.2"/>
<polyline points="112.8,661.5 111.7,653.8" fill="none" stroke="#d4cfc6" stroke-width="1.2"/>
<polyline points="112.8,661.5 111.7,653.8" fill="none" stroke="#d4cfc6" stroke-width="1.2"/>
<polyline points="111.7,653.8 118.0,657.2" fill="none" stroke="#d4cfc6" stroke-width="1.2"/>
<polyline points="111.7,653.8 118.0,657.2" fill="none" stroke="#d4cfc6" stroke-width="1.2"/>
<polyline points="112.8,661.5 118.0,657.2" fill="none" stroke="#d4cfc6" stroke-width="1.2"/>
<polyline points="112.8,661.5 118.0,657.2" fill="none" stroke="#d4cfc6" stroke-width="1.2"/>
<polyline points="121.2,699.8 112.8,661.5" fill="none" stroke="#d4cfc6" stroke-width="1.2"/>
<polyline points="121.2,699.8 112.8,661.5" fill="none" stroke="#d4cfc6" stroke-width="1.2"/>
<polyline points="108.5,637.1 105.3,620.4" fill="none" stroke="#d4cfc6" stroke-width="1.2"/>
<polyline points="108.5,637.1 105.3,620.4" fill="none" stroke="#d4cfc6" stroke-width="1.2"/>
<polyline points="121.4,634.2 118.2,634.9 108.5,637.1" fill="none" stroke="#d4cfc6" stroke-width="1.2"/>
<polyline points="121.4,634.2 118.2,634.9 108.5,637.1" fill="none" stroke="#d4cfc6" stroke-width="1.2"/>
<polyline points="118.0,657.2 154.9,676.5" fill="none" stroke="#d4cfc6" stroke-width="1.2"/>
<polyline points="118.0,657.2 154.9,676.5" fill="none" stroke="#d4cfc6" stroke-width="1.2"/>
<polyline points="91.1,620.6 103.6,602.8 104.3,602.3 105.1,602.2 105.9,602.5 107.6,603.6 108.3,604.1 108.4,604.9 108.1,605.7 107.4,607.0 107.2,607.5 107.3,608.1 107.7,608.5 110.7,610.5" fill="none" stroke="#d4cfc6" stroke-width="1.2"/>
<polyline points="91.1,620.6 103.6,602.8 104.3,602.3 105.1,602.2 105.9,602.5 107.6,603.6 108.3,604.1 108.4,604.9 108.1,605.7 107.4,607.0 107.2,607.5 107.3,608.1 107.7,608.5 110.7,610.5" fill="none" stroke="#d4cfc6" stroke-width="1.2"/>
<polyline points="54.1,611.7 33.1,641.0" fill="none" stroke="#d4cfc6" stroke-width="1.2"/>
<polyline points="54.1,611.7 33.1,641.0" fill="none" stroke="#d4cfc6" stroke-width="1.2"/>
<polyline points="72.7,585.4 54.1,611.7" fill="none" stroke="#d4cfc6" stroke-width="1.2"/>
<polyline points="72.7,585.4 54.1,611.7" fill="none" stroke="#d4cfc6" stroke-width="1.2"/>
<polyline points="91.8,560.9 72.7,585.4" fill="none" stroke="#d4cfc6" stroke-width="1.2"/>
<polyline points="91.8,560.9 72.7,585.4" fill="none" stroke="#d4cfc6" stroke-width="1.2"/>
<polyline points="130.6,513.1 91.8,560.9" fill="none" stroke="#d4cfc6" stroke-width="1.2"/>
<polyline points="130.6,513.1 91.8,560.9" fill="none" stroke="#d4cfc6" stroke-width="1.2"/>
<polyline points="110.3,569.0 91.8,560.9" fill="none" stroke="#d4cfc6" stroke-width="1.2"/>
<polyline points="110.3,569.0 91.8,560.9" fill="none" stroke="#d4cfc6" stroke-width="1.2"/>
<polyline points="91.9,598.0 72.7,585.4" fill="none" stroke="#d4cfc6" stroke-width="1.2"/>
<polyline points="91.9,598.0 72.7,585.4" fill="none" stroke="#d4cfc6" stroke-width="1.2"/>
<polyline points="110.3,569.0 91.9,598.0" fill="none" stroke="#d4cfc6" stroke-width="1.2"/>
<polyline points="110.3,569.0 91.9,598.0" fill="none" stroke="#d4cfc6" stroke-width="1.2"/>
<polyline points="126.8,545.8 110.3,569.0" fill="none" stroke="#d4cfc6" stroke-width="1.2"/>
<polyline points="126.8,545.8 110.3,569.0" fill="none" stroke="#d4cfc6" stroke-width="1.2"/>
<polyline points="133.6,579.1 110.3,569.0" fill="none" stroke="#d4cfc6" stroke-width="1.2"/>
<polyline points="133.6,579.1 110.3,569.0" fill="none" stroke="#d4cfc6" stroke-width="1.2"/>
<polyline points="147.6,558.3 126.8,545.8" fill="none" stroke="#d4cfc6" stroke-width="1.2"/>
<polyline points="147.6,558.3 126.8,545.8" fill="none" stroke="#d4cfc6" stroke-width="1.2"/>
<polyline points="140.5,527.2 126.8,545.8" fill="none" stroke="#d4cfc6" stroke-width="1.2"/>
<polyline points="140.5,527.2 126.8,545.8" fill="none" stroke="#d4cfc6" stroke-width="1.2"/>
<polyline points="139.1,589.5 145.5,625.2 154.9,676.5" fill="none" stroke="#d4cfc6" stroke-width="1.2"/>
<polyline points="139.1,589.5 145.5,625.2 154.9,676.5" fill="none" stroke="#d4cfc6" stroke-width="1.2"/>
<polyline points="153.6,550.2 156.9,551.4 160.2,552.4 163.6,553.3 166.3,553.9" fill="none" stroke="#d4cfc6" stroke-width="1.2"/>
<polyline points="153.6,550.2 156.9,551.4 160.2,552.4 163.6,553.3 166.3,553.9" fill="none" stroke="#d4cfc6" stroke-width="1.2"/>
<polyline points="153.6,550.2 159.9,542.6" fill="none" stroke="#d4cfc6" stroke-width="1.2"/>
<polyline points="153.6,550.2 159.9,542.6" fill="none" stroke="#d4cfc6" stroke-width="1.2"/>
<polyline points="147.6,558.3 153.6,550.2" fill="none" stroke="#d4cfc6" stroke-width="1.2"/>
<polyline points="147.6,558.3 153.6,550.2" fill="none" stroke="#d4cfc6" stroke-width="1.2"/>
<polyline points="133.6,579.1 134.1,578.5 147.6,558.3" fill="none" stroke="#d4cfc6" stroke-width="1.2"/>
<polyline points="133.6,579.1 134.1,578.5 147.6,558.3" fill="none" stroke="#d4cfc6" stroke-width="1.2"/>
<polyline points="179.0,597.1 143.1,582.8" fill="none" stroke="#d4cfc6" stroke-width="1.2"/>
<polyline points="179.0,597.1 143.1,582.8" fill="none" stroke="#d4cfc6" stroke-width="1.2"/>
<polyline points="143.1,582.8 133.6,579.1" fill="none" stroke="#d4cfc6" stroke-width="1.2"/>
<polyline points="143.1,582.8 133.6,579.1" fill="none" stroke="#d4cfc6" stroke-width="1.2"/>
<polyline points="143.1,582.8 139.1,589.5" fill="none" stroke="#d4cfc6" stroke-width="1.2"/>
<polyline points="143.1,582.8 139.1,589.5" fill="none" stroke="#d4cfc6" stroke-width="1.2"/>
<polyline points="131.6,582.5 134.4,582.3 136.4,583.1 137.9,584.6 138.6,586.7 139.1,589.5" fill="none" stroke="#d4cfc6" stroke-width="1.2"/>
<polyline points="131.6,582.5 134.4,582.3 136.4,583.1 137.9,584.6 138.6,586.7 139.1,589.5" fill="none" stroke="#d4cfc6" stroke-width="1.2"/>
<polyline points="131.6,582.5 133.6,579.1" fill="none" stroke="#d4cfc6" stroke-width="1.2"/>
<polyline points="131.6,582.5 133.6,579.1" fill="none" stroke="#d4cfc6" stroke-width="1.2"/>
<polyline points="129.2,554.4 114.2,551.5 98.6,554.5 84.4,563.2 73.2,576.5 66.5,592.7 65.0,609.9 68.9,626.1 77.8,639.3 90.5,647.8 105.6,650.8 121.2,647.7 135.4,639.1 146.5,625.8 153.2,609.6 154.7,592.4 150.8,576.2 141.9,563.0 129.2,554.4" fill="none" stroke="#111" stroke-width="3" stroke-dasharray="9 6"/>
<polyline points="136.6,826.9 126.8,545.8" fill="none" stroke="#d9782c" stroke-width="2.5" stroke-dasharray="5 4"/>
<polyline points="126.8,545.8 110.3,569.0 91.8,560.9 72.7,585.4 54.1,611.7 73.3,625.5 92.2,639.4 111.7,653.8 118.0,657.2 154.9,676.5 145.5,625.2 139.1,589.5" fill="none" stroke="#2a7" stroke-width="5" stroke-linecap="round"/>
<circle cx="136.6" cy="826.9" r="5" fill="#111"/>
<circle cx="126.8" cy="545.8" r="5" fill="#c45"/>
<circle cx="139.1" cy="589.5" r="5" fill="#1a6bb5"/>
</svg>